<svg width="40" height="40" viewBox="0 0 40 40" fill="none" xmlns="http://www.w3.org/2000/svg">
<rect width="40" height="40" rx="20" fill="url(#paint0_linear_72_64)"/>
<path d="M15.439 11.25L15.108 12.485C15.0472 12.7124 15.0395 12.9507 15.0855 13.1815C15.1315 13.4123 15.2299 13.6294 15.3732 13.8161C15.5165 14.0028 15.7008 14.154 15.9119 14.2582C16.123 14.3623 16.3552 14.4164 16.5905 14.4165H26.1515C26.797 14.4165 27.4244 14.2036 27.9365 13.8107C28.4486 13.4178 28.8168 12.8669 28.984 12.2435L29.25 11.25H15.439ZM13.16 19.7565L10.75 28.75H15.354L17.4975 20.75H24.705C25.2788 20.7502 25.8367 20.5609 26.2919 20.2116C26.7471 19.8622 27.0743 19.3723 27.2225 18.818L27.5535 17.583H15.9925C15.3469 17.583 14.7194 17.7961 14.2072 18.1892C13.6951 18.5823 13.327 19.1329 13.16 19.7565Z" stroke="#FBFBE9" stroke-linecap="round" stroke-linejoin="round"/>
<defs>
<linearGradient id="paint0_linear_72_64" x1="20" y1="0" x2="20" y2="40" gradientUnits="userSpaceOnUse">
<stop stop-color="#121825"/>
<stop offset="1" stop-color="#173473"/>
</linearGradient>
</defs>
</svg>
